<mxfile host="65bd71144e">
    <diagram id="7MmyRdp_7-yGdt9PXK2R" name="Page-1">
        <mxGraphModel dx="674" dy="362" grid="1" gridSize="10" guides="1" tooltips="1" connect="1" arrows="1" fold="1" page="1" pageScale="1" pageWidth="850" pageHeight="1100" math="0" shadow="0">
            <root>
                <mxCell id="0"/>
                <mxCell id="1" parent="0"/>
                <mxCell id="26" style="edgeStyle=orthogonalEdgeStyle;rounded=0;jumpSize=6;html=1;exitX=0.5;exitY=1;exitDx=0;exitDy=0;fontFamily=Helvetica;fontSize=18;" edge="1" parent="1" source="23" target="13">
                    <mxGeometry relative="1" as="geometry"/>
                </mxCell>
                <mxCell id="23" value="" style="rounded=1;whiteSpace=wrap;html=1;fontFamily=Helvetica;fontSize=18;fillColor=none;arcSize=6;" vertex="1" parent="1">
                    <mxGeometry x="440" y="120" width="340" height="270" as="geometry"/>
                </mxCell>
                <mxCell id="14" style="edgeStyle=orthogonalEdgeStyle;html=1;exitX=0.5;exitY=1;exitDx=0;exitDy=0;entryX=0.5;entryY=0;entryDx=0;entryDy=0;fontFamily=Helvetica;fontSize=18;rounded=0;jumpSize=6;" edge="1" parent="1" source="7" target="8">
                    <mxGeometry relative="1" as="geometry">
                        <Array as="points">
                            <mxPoint x="615" y="190"/>
                            <mxPoint x="525" y="190"/>
                        </Array>
                    </mxGeometry>
                </mxCell>
                <mxCell id="20" style="edgeStyle=orthogonalEdgeStyle;html=1;exitX=0.5;exitY=1;exitDx=0;exitDy=0;entryX=0.5;entryY=0;entryDx=0;entryDy=0;fontFamily=Helvetica;fontSize=18;rounded=0;" edge="1" parent="1" source="7" target="11">
                    <mxGeometry relative="1" as="geometry">
                        <Array as="points">
                            <mxPoint x="615" y="190"/>
                            <mxPoint x="695" y="190"/>
                        </Array>
                    </mxGeometry>
                </mxCell>
                <mxCell id="7" value="depth image" style="rounded=1;whiteSpace=wrap;html=1;fontSize=18;" vertex="1" parent="1">
                    <mxGeometry x="540" y="135" width="150" height="40" as="geometry"/>
                </mxCell>
                <mxCell id="18" style="edgeStyle=orthogonalEdgeStyle;html=1;exitX=0.5;exitY=1;exitDx=0;exitDy=0;entryX=0.5;entryY=0;entryDx=0;entryDy=0;fontFamily=Helvetica;fontSize=18;" edge="1" parent="1" source="8" target="10">
                    <mxGeometry relative="1" as="geometry"/>
                </mxCell>
                <mxCell id="8" value="plane detection" style="rounded=1;whiteSpace=wrap;html=1;fontSize=18;" vertex="1" parent="1">
                    <mxGeometry x="450" y="210" width="150" height="40" as="geometry"/>
                </mxCell>
                <mxCell id="19" style="edgeStyle=orthogonalEdgeStyle;html=1;exitX=0.5;exitY=1;exitDx=0;exitDy=0;entryX=0.5;entryY=0;entryDx=0;entryDy=0;fontFamily=Helvetica;fontSize=18;" edge="1" parent="1" source="10" target="12">
                    <mxGeometry relative="1" as="geometry"/>
                </mxCell>
                <mxCell id="10" value="&lt;span style=&quot;left: 265.916px; top: 340.396px; font-size: 18px; transform: scaleX(0.838261);&quot; dir=&quot;ltr&quot;&gt;polygonizion&amp;nbsp;&lt;/span&gt;" style="rounded=1;whiteSpace=wrap;html=1;fontSize=18;" vertex="1" parent="1">
                    <mxGeometry x="450" y="274" width="150" height="40" as="geometry"/>
                </mxCell>
                <mxCell id="11" value="HeightMap" style="rounded=1;whiteSpace=wrap;html=1;fontSize=18;" vertex="1" parent="1">
                    <mxGeometry x="620" y="270" width="150" height="40" as="geometry"/>
                </mxCell>
                <mxCell id="12" value="&lt;span style=&quot;left: 265.916px ; top: 340.396px ; font-size: 18px ; transform: scalex(0.838261)&quot; dir=&quot;ltr&quot;&gt;polygon cutting&lt;/span&gt;" style="rounded=1;whiteSpace=wrap;html=1;fontSize=18;" vertex="1" parent="1">
                    <mxGeometry x="450" y="338" width="150" height="40" as="geometry"/>
                </mxCell>
                <mxCell id="13" value="footstep planning" style="rounded=1;whiteSpace=wrap;html=1;fontSize=18;" vertex="1" parent="1">
                    <mxGeometry x="535" y="413" width="150" height="40" as="geometry"/>
                </mxCell>
                <mxCell id="27" value="&lt;font style=&quot;font-size: 16px&quot;&gt;environment&lt;br&gt;awareness&lt;/font&gt;" style="text;html=1;align=center;verticalAlign=middle;resizable=0;points=[];autosize=1;strokeColor=none;fillColor=none;fontSize=18;fontFamily=Helvetica;" vertex="1" parent="1">
                    <mxGeometry x="438" y="122" width="100" height="50" as="geometry"/>
                </mxCell>
            </root>
        </mxGraphModel>
    </diagram>
</mxfile>